<?xml version="1.0" encoding="UTF-8"?>
<svg width="254px" height="254px" viewBox="0 0 254 254" version="1.1" xmlns="http://www.w3.org/2000/svg" xmlns:xlink="http://www.w3.org/1999/xlink">
    <title>pl-256</title>
    <defs>
        <polygon id="path-1" points="0 0 195.243247 0 195.243247 124.3788 0 124.3788"></polygon>
        <polygon id="path-3" points="-2.84217094e-14 7.10542736e-15 195.243247 7.10542736e-15 195.243247 124.3788 -2.84217094e-14 124.3788"></polygon>
    </defs>
    <g id="Page-1" stroke="none" stroke-width="1" fill="none" fill-rule="evenodd">
        <g id="Group" transform="translate(29.000500, 65.000000)">
            <mask id="mask-2" fill="white">
                <use xlink:href="#path-1"></use>
            </mask>
            <g id="Clip-4"></g>
            <mask id="mask-4" fill="white">
                <use xlink:href="#path-3"></use>
            </mask>
            <g id="Clip-4"></g>
            <path d="M163.108,113.1968 L103.672,113.4318 C99.332,113.5028 91.979,112.3258 90.979,104.9698 L90.835,68.3928 L90.807,30.6968 L90.726,30.6968 L90.681,19.3618 C90.681,16.8598 91.331,11.0388 97.385,11.0388 L120.815,10.9468 L120.843,10.9468 C122.632,10.9468 124.316,11.6398 125.587,12.9008 C126.864,14.1678 127.572,15.8568 127.579,17.6568 L127.61,25.3918 C127.617,27.1918 126.923,28.8858 125.655,30.1628 C124.388,31.4408 122.699,32.1488 120.902,32.1558 L102.605,32.2228 L102.646,43.1688 L120.943,43.1028 C123.202,43.0938 125.354,42.6428 127.339,41.8598 L127.482,80.0638 L127.482,95.6538 L158.728,95.6538 L158.728,84.7078 L138.428,84.7078 L138.287,43.0528 L162.807,42.9558 C174.947,42.9558 184.138,52.0638 184.185,64.1418 L184.296159,91.8408 C184.341,103.5698 174.837,113.1498 163.108,113.1968 L163.108,113.1968 Z M58.153,51.6438 L79.821,51.5798 L79.888,68.4748 L79.91,98.9508 L58.341,99.0148 L58.153,51.6438 Z M195.132,64.0998 C195.061,45.8048 181.164,32.0088 162.786,32.0088 L137.236,32.1108 C138.092,30.0238 138.566,27.7408 138.557,25.3488 L138.526,17.6148 C138.507,12.8908 136.65,8.4568 133.297,5.1298 C129.943,1.8018 125.533,-0.0082 120.772,-0.000226405837 L97.363,0.0918 C86.983,0.0918 79.734,8.0158 79.734,19.3838 L79.807,37.7908 L79.866,37.7908 L79.868,40.6328 L47.674,40.7278 L25.506,40.7278 L25.506,51.6748 L47.207,51.6748 L47.279,69.9398 L0,69.9398 L0,80.8868 L47.322,80.8868 L47.437,109.9938 L80.894,109.8948 C83.663,118.7808 92.092,124.3788 103.576,124.3788 L103.715,124.3788 L163.151,124.1438 C180.915,124.0728 195.312,109.5618 195.243247,91.7978 L195.132,64.0998 Z" id="Fill-3" fill="#F6FAFD" mask="url(#mask-4)"></path>
            <polygon id="Fill-6" fill="#F6FAFD" mask="url(#mask-4)" points="11.8865 109.993 35.6055 109.993 35.6055 99.046 11.8865 99.046"></polygon>
        </g>
    </g>
</svg>